2025-12-19T04:14:57.7009241Z ##[group]Run $StreamUrl = python -m yt_dlp -f best -g "https://www.youtube.com/@ThanthiTV/live" --no-warnings
2025-12-19T04:14:57.7010580Z [36;1m$StreamUrl = python -m yt_dlp -f best -g "https://www.youtube.com/@ThanthiTV/live" --no-warnings[0m
2025-12-19T04:14:57.7011169Z [36;1mif ($StreamUrl -match "http") {[0m
2025-12-19T04:14:57.7011816Z [36;1m     ffmpeg -i "$StreamUrl" -vf "fps=0.2,scale=854:480,crop=854:120:0:360" -t 60 -q:v 5 screenshot_%04d.jpg[0m
2025-12-19T04:14:57.7012385Z [36;1m}[0m
2025-12-19T04:14:57.7041797Z shell: C:\Windows\System32\WindowsPowerShell\v1.0\powershell.EXE -command ". '{0}'"
2025-12-19T04:14:57.7042558Z ##[endgroup]
2025-12-19T04:15:04.4716422Z ffmpeg version 8.0.1-full_build-www.gyan.dev Copyright (c) 2000-2025 the FFmpeg developers
2025-12-19T04:15:04.4717534Z   built with gcc 15.2.0 (Rev8, Built by MSYS2 project)
2025-12-19T04:15:04.4722806Z   configuration: --enable-gpl --enable-version3 --enable-static --disable-w32threads --disable-autodetect --enable-fontconfig --enable-iconv --enable-gnutls --enable-lcms2 --enable-libxml2 --enable-gmp --enable-bzlib --enable-lzma --enable-libsnappy --enable-zlib --enable-librist --enable-libsrt --enable-libssh --enable-libzmq --enable-avisynth --enable-libbluray --enable-libcaca --enable-libdvdnav --enable-libdvdread --enable-sdl2 --enable-libaribb24 --enable-libaribcaption --enable-libdav1d --enable-libdavs2 --enable-libopenjpeg --enable-libquirc --enable-libuavs3d --enable-libxevd --enable-libzvbi --enable-liboapv --enable-libqrencode --enable-librav1e --enable-libsvtav1 --enable-libvvenc --enable-libwebp --enable-libx264 --enable-libx265 --enable-libxavs2 --enable-libxeve --enable-libxvid --enable-libaom --enable-libjxl --enable-libvpx --enable-mediafoundation --enable-libass --enable-frei0r --enable-libfreetype --enable-libfribidi --enable-libharfbuzz --enable-liblensfun --enable-libvidstab --enable-libvmaf --enable-libzimg --enable-amf --enable-cuda-llvm --enable-cuvid --enable-dxva2 --enable-d3d11va --enable-d3d12va --enable-ffnvcodec --enable-libvpl --enable-nvdec --enable-nvenc --enable-vaapi --enable-libshaderc --enable-vulkan --enable-libplacebo --enable-opencl --enable-libcdio --enable-openal --enable-libgme --enable-libmodplug --enable-libopenmpt --enable-libopencore-amrwb --enable-libmp3lame --enable-libshine --enable-libtheora --enable-libtwolame --enable-libvo-amrwbenc --enable-libcodec2 --enable-libilbc --enable-libgsm --enable-liblc3 --enable-libopencore-amrnb --enable-libopus --enable-libspeex --enable-libvorbis --enable-ladspa --enable-libbs2b --enable-libflite --enable-libmysofa --enable-librubberband --enable-libsoxr --enable-chromaprint --enable-whisper
2025-12-19T04:15:04.4727695Z   libavutil      60.  8.100 / 60.  8.100
2025-12-19T04:15:04.4727918Z   libavcodec     62. 11.100 / 62. 11.100
2025-12-19T04:15:04.4728125Z   libavformat    62.  3.100 / 62.  3.100
2025-12-19T04:15:04.4728491Z   libavdevice    62.  1.100 / 62.  1.100
2025-12-19T04:15:04.4728726Z   libavfilter    11.  4.100 / 11.  4.100
2025-12-19T04:15:04.4728921Z   libswscale      9.  1.100 /  9.  1.100
2025-12-19T04:15:04.4729156Z   libswresample   6.  1.100 /  6.  1.100
2025-12-19T04:15:05.2595485Z [hls @ 0000029711bd7180] Opening 'https://rr6---sn-ci5gup-jwc6.googlevideo.com/videoplayback/id/WhY5UIDpM4c.1/itag/301/source/yt_live_broadcast/expire/1766139300/ei/RNFEafqwMOXd3LUPlZbEEQ/ip/2401:4900:64f2:5a81:94a4:a294:1f3e:3361/requiressl/yes/ratebypass/yes/live/1/sgoap/gir%3Dyes%3Bitag%3D140/sgovp/gir%3Dyes%3Bitag%3D299/rqh/1/hls_chunk_host/rr6---sn-ci5gup-jwc6.googlevideo.com/xpc/EgVo2aDSNQ%3D%3D/playlist_duration/30/manifest_duration/30/bui/AYUSA3CsiRvw6_PVGyiWPem9o5ts02cxajQ-YsFdSP4S4ja9v2G3ZV603lfSjnSKCgjfqpq6_M-nlrhT/spc/wH4QqxI_4K8eD1dg2bmf/vprv/1/playlist_type/DVR/cps/504/initcwndbps/577500/met/1766117702,/mh/rV/mm/44/mn/sn-ci5gup-jwc6/ms/lva/mv/m/mvi/6/pl/44/rms/lva,lva/keepalive/yes/fexp/51552689,51565116,51565681,51580968/mt/1766117066/sparams/expire,ei,ip,id,itag,source,requiressl,ratebypass,live,sgoap,sgovp,rqh,xpc,playlist_duration,manifest_duration,bui,spc,vprv,playlist_type/sig/AJfQdSswRAIgYVnUF_wQC3JqYCPpRSTFHg_LKrHlYcpizKqQwEknpCsCIC-0OBczmzEq9VWd5-7JBdkJb88_G1lFsCNlAZiQv9Sy/lsparams/hls_chunk_host,cps,initcwndbps,met,mh,mm,mn,ms,mv,mvi,pl,rms/lsig/APaTxxMwRAIgfbVR0JcjmWJMgXeU5OF2wZCJvPLKZZbn9ou4fdDsUpQCIBZjfC5Nmwv8xLceCmqpn7hTP20wJHd77CV7EUUnmT8F/playlist/index.m3u8/sq/77/goap/lmt%3D1/govp/lmt%3D1/dur/5.000/file/seg.ts' for reading
2025-12-19T04:15:06.0030908Z     Last message repeated 1 times
2025-12-19T04:15:06.0035304Z Input #0, hls, from 'https://manifest.googlevideo.com/api/manifest/hls_playlist/expire/1766139300/ei/RNFEafqwMOXd3LUPlZbEEQ/ip/2401:4900:64f2:5a81:94a4:a294:1f3e:3361/id/WhY5UIDpM4c.1/itag/301/source/yt_live_broadcast/requiressl/yes/ratebypass/yes/live/1/sgoap/gir%3Dyes%3Bitag%3D140/sgovp/gir%3Dyes%3Bitag%3D299/rqh/1/hls_chunk_host/rr6---sn-ci5gup-jwc6.googlevideo.com/xpc/EgVo2aDSNQ%3D%3D/playlist_duration/30/manifest_duration/30/bui/AYUSA3CsiRvw6_PVGyiWPem9o5ts02cxajQ-YsFdSP4S4ja9v2G3ZV603lfSjnSKCgjfqpq6_M-nlrhT/spc/wH4QqxI_4K8eD1dg2bmf/vprv/1/playlist_type/DVR/cps/504/initcwndbps/577500/met/1766117702,/mh/rV/mm/44/mn/sn-ci5gup-jwc6/ms/lva/mv/m/mvi/6/pl/44/rms/lva,lva/dover/11/pacing/0/keepalive/yes/fexp/51552689,51565116,51565681,51580968/mt/1766117066/sparams/expire,ei,ip,id,itag,source,requiressl,ratebypass,live,sgoap,sgovp,rqh,xpc,playlist_duration,manifest_duration,bui,spc,vprv,playlist_type/sig/AJfQdSswRAIgYVnUF_wQC3JqYCPpRSTFHg_LKrHlYcpizKqQwEknpCsCIC-0OBczmzEq9VWd5-7JBdkJb88_G1lFsCNlAZiQv9Sy/lsparams/hls_chunk_host,cps,initcwndbps,met,mh,mm,mn,ms,mv,mvi,pl,rms/lsig/APaTxxMwRAIgfbVR0JcjmWJMgXeU5OF2wZCJvPLKZZbn9ou4fdDsUpQCIBZjfC5Nmwv8xLceCmqpn7hTP20wJHd77CV7EUUnmT8F/playlist/index.m3u8':
2025-12-19T04:15:06.0039164Z   Duration: N/A, start: 385.000000, bitrate: N/A
2025-12-19T04:15:06.0039421Z   Program 0 
2025-12-19T04:15:06.0039621Z     Metadata:
2025-12-19T04:15:06.0039806Z       variant_bitrate : 0
2025-12-19T04:15:06.0040083Z   Stream #0:0: Audio: aac (LC) ([15][0][0][0] / 0x000F), 44100 Hz, stereo, fltp, start 385.010067
2025-12-19T04:15:06.0040515Z     Metadata:
2025-12-19T04:15:06.0040671Z       variant_bitrate : 0
2025-12-19T04:15:06.0041043Z   Stream #0:1: Video: h264 (High) ([27][0][0][0] / 0x001B), yuv420p(tv, bt709), 1920x1080 [SAR 1:1 DAR 16:9], 60 fps, 60 tbr, 90k tbn, start 385.000000
2025-12-19T04:15:06.0041417Z     Metadata:
2025-12-19T04:15:06.0041591Z       variant_bitrate : 0
2025-12-19T04:15:06.0086068Z Stream mapping:
2025-12-19T04:15:06.0086771Z   Stream #0:1 -> #0:0 (h264 (native) -> mjpeg (native))
2025-12-19T04:15:06.0087211Z Press [q] to stop, [?] for help
2025-12-19T04:15:06.3763807Z Output #0, image2, to 'screenshot_%04d.jpg':
2025-12-19T04:15:06.3764599Z   Metadata:
2025-12-19T04:15:06.3764854Z     encoder         : Lavf62.3.100
2025-12-19T04:15:06.3765994Z   Stream #0:0: Video: mjpeg, yuv420p(pc, bt709, progressive), 854x120 [SAR 1280:1281 DAR 64:9], q=2-31, 200 kb/s, 0.20 fps, 0.20 tbn
2025-12-19T04:15:06.3768426Z     Metadata:
2025-12-19T04:15:06.3768780Z       encoder         : Lavc62.11.100 mjpeg
2025-12-19T04:15:06.3769616Z       variant_bitrate : 0
2025-12-19T04:15:06.3770671Z     Side data:
2025-12-19T04:15:06.3771680Z       cpb: bitrate max/min/avg: 0/0/200000 buffer size: 0 vbv_delay: N/A
2025-12-19T04:15:06.6097942Z frame=    0 fps=0.0 q=0.0 size=       0KiB time=N/A bitrate=N/A speed=N/A elapsed=0:00:00.51    
2025-12-19T04:15:06.6112829Z [https @ 0000029712276140] Opening 'https://rr6---sn-ci5gup-jwc6.googlevideo.com/videoplayback/id/WhY5UIDpM4c.1/itag/301/source/yt_live_broadcast/expire/1766139300/ei/RNFEafqwMOXd3LUPlZbEEQ/ip/2401:4900:64f2:5a81:94a4:a294:1f3e:3361/requiressl/yes/ratebypass/yes/live/1/sgoap/gir%3Dyes%3Bitag%3D140/sgovp/gir%3Dyes%3Bitag%3D299/rqh/1/hls_chunk_host/rr6---sn-ci5gup-jwc6.googlevideo.com/xpc/EgVo2aDSNQ%3D%3D/playlist_duration/30/manifest_duration/30/bui/AYUSA3CsiRvw6_PVGyiWPem9o5ts02cxajQ-YsFdSP4S4ja9v2G3ZV603lfSjnSKCgjfqpq6_M-nlrhT/spc/wH4QqxI_4K8eD1dg2bmf/vprv/1/playlist_type/DVR/cps/504/initcwndbps/577500/met/1766117702,/mh/rV/mm/44/mn/sn-ci5gup-jwc6/ms/lva/mv/m/mvi/6/pl/44/rms/lva,lva/keepalive/yes/fexp/51552689,51565116,51565681,51580968/mt/1766117066/sparams/expire,ei,ip,id,itag,source,requiressl,ratebypass,live,sgoap,sgovp,rqh,xpc,playlist_duration,manifest_duration,bui,spc,vprv,playlist_type/sig/AJfQdSswRAIgYVnUF_wQC3JqYCPpRSTFHg_LKrHlYcpizKqQwEknpCsCIC-0OBczmzEq9VWd5-7JBdkJb88_G1lFsCNlAZiQv9Sy/lsparams/hls_chunk_host,cps,initcwndbps,met,mh,mm,mn,ms,mv,mvi,pl,rms/lsig/APaTxxMwRAIgfbVR0JcjmWJMgXeU5OF2wZCJvPLKZZbn9ou4fdDsUpQCIBZjfC5Nmwv8xLceCmqpn7hTP20wJHd77CV7EUUnmT8F/playlist/index.m3u8/sq/79/goap/lmt%3D1/govp/lmt%3D1/dur/5.000/file/seg.ts' for reading
2025-12-19T04:15:07.5430255Z frame=    0 fps=0.0 q=0.0 size=       0KiB time=N/A bitrate=N/A speed=N/A elapsed=0:00:01.02    
2025-12-19T04:15:08.0590426Z frame=    0 fps=0.0 q=0.0 size=       0KiB time=N/A bitrate=N/A speed=N/A elapsed=0:00:01.53    
2025-12-19T04:15:08.5859924Z frame=    1 fps=0.5 q=5.0 size=N/A time=00:00:05.00 bitrate=N/A speed=2.44x elapsed=0:00:02.05    
2025-12-19T04:15:09.0906227Z frame=    2 fps=0.8 q=5.0 size=N/A time=00:00:10.00 bitrate=N/A speed=3.88x elapsed=0:00:02.57    
2025-12-19T04:15:09.6057692Z frame=    2 fps=0.6 q=5.0 size=N/A time=00:00:10.00 bitrate=N/A speed=3.25x elapsed=0:00:03.08    
2025-12-19T04:15:10.1214009Z frame=    2 fps=0.6 q=5.0 size=N/A time=00:00:10.00 bitrate=N/A speed=2.78x elapsed=0:00:03.59    
2025-12-19T04:15:10.6408362Z frame=    2 fps=0.5 q=5.0 size=N/A time=00:00:10.00 bitrate=N/A speed=2.43x elapsed=0:00:04.11    
2025-12-19T04:15:11.1084095Z frame=    2 fps=0.4 q=5.0 size=N/A time=00:00:10.00 bitrate=N/A speed=2.16x elapsed=0:00:04.63    
2025-12-19T04:15:11.1099046Z [https @ 0000029712276140] Opening 'https://rr6---sn-ci5gup-jwc6.googlevideo.com/videoplayback/id/WhY5UIDpM4c.1/itag/301/source/yt_live_broadcast/expire/1766139300/ei/RNFEafqwMOXd3LUPlZbEEQ/ip/2401:4900:64f2:5a81:94a4:a294:1f3e:3361/requiressl/yes/ratebypass/yes/live/1/sgoap/gir%3Dyes%3Bitag%3D140/sgovp/gir%3Dyes%3Bitag%3D299/rqh/1/hls_chunk_host/rr6---sn-ci5gup-jwc6.googlevideo.com/xpc/EgVo2aDSNQ%3D%3D/playlist_duration/30/manifest_duration/30/bui/AYUSA3CsiRvw6_PVGyiWPem9o5ts02cxajQ-YsFdSP4S4ja9v2G3ZV603lfSjnSKCgjfqpq6_M-nlrhT/spc/wH4QqxI_4K8eD1dg2bmf/vprv/1/playlist_type/DVR/cps/504/initcwndbps/577500/met/1766117702,/mh/rV/mm/44/mn/sn-ci5gup-jwc6/ms/lva/mv/m/mvi/6/pl/44/rms/lva,lva/keepalive/yes/fexp/51552689,51565116,51565681,51580968/mt/1766117066/sparams/expire,ei,ip,id,itag,source,requiressl,ratebypass,live,sgoap,sgovp,rqh,xpc,playlist_duration,manifest_duration,bui,spc,vprv,playlist_type/sig/AJfQdSswRAIgYVnUF_wQC3JqYCPpRSTFHg_LKrHlYcpizKqQwEknpCsCIC-0OBczmzEq9VWd5-7JBdkJb88_G1lFsCNlAZiQv9Sy/lsparams/hls_chunk_host,cps,initcwndbps,met,mh,mm,mn,ms,mv,mvi,pl,rms/lsig/APaTxxMwRAIgfbVR0JcjmWJMgXeU5OF2wZCJvPLKZZbn9ou4fdDsUpQCIBZjfC5Nmwv8xLceCmqpn7hTP20wJHd77CV7EUUnmT8F/playlist/index.m3u8/sq/80/goap/lmt%3D1/govp/lmt%3D1/dur/5.000/file/seg.ts' for reading
2025-12-19T04:15:11.6812696Z frame=    2 fps=0.4 q=5.0 size=N/A time=00:00:10.00 bitrate=N/A speed=1.94x elapsed=0:00:05.14    
2025-12-19T04:15:12.1867548Z frame=    3 fps=0.5 q=5.0 size=N/A time=00:00:15.00 bitrate=N/A speed=2.64x elapsed=0:00:05.67    
2025-12-19T04:15:12.7059748Z frame=    3 fps=0.5 q=5.0 size=N/A time=00:00:15.00 bitrate=N/A speed=2.43x elapsed=0:00:06.17    
2025-12-19T04:15:13.2183808Z frame=    3 fps=0.4 q=5.0 size=N/A time=00:00:15.00 bitrate=N/A speed=2.24x elapsed=0:00:06.69    
2025-12-19T04:15:13.7390989Z frame=    3 fps=0.4 q=5.0 size=N/A time=00:00:15.00 bitrate=N/A speed=2.08x elapsed=0:00:07.20    
2025-12-19T04:15:14.2552104Z frame=    3 fps=0.4 q=5.0 size=N/A time=00:00:15.00 bitrate=N/A speed=1.94x elapsed=0:00:07.73    
2025-12-19T04:15:14.7714730Z frame=    3 fps=0.4 q=5.0 size=N/A time=00:00:15.00 bitrate=N/A speed=1.82x elapsed=0:00:08.24    
2025-12-19T04:15:15.2889332Z frame=    3 fps=0.3 q=5.0 size=N/A time=00:00:15.00 bitrate=N/A speed=1.71x elapsed=0:00:08.76    
2025-12-19T04:15:15.8046965Z frame=    3 fps=0.3 q=5.0 size=N/A time=00:00:15.00 bitrate=N/A speed=1.62x elapsed=0:00:09.27    
2025-12-19T04:15:16.1781774Z frame=    3 fps=0.3 q=5.0 size=N/A time=00:00:15.00 bitrate=N/A speed=1.53x elapsed=0:00:09.79    
2025-12-19T04:15:16.1790987Z [https @ 0000029712dcf900] Opening 'https://manifest.googlevideo.com/api/manifest/hls_playlist/expire/1766139300/ei/RNFEafqwMOXd3LUPlZbEEQ/ip/2401:4900:64f2:5a81:94a4:a294:1f3e:3361/id/WhY5UIDpM4c.1/itag/301/source/yt_live_broadcast/requiressl/yes/ratebypass/yes/live/1/sgoap/gir%3Dyes%3Bitag%3D140/sgovp/gir%3Dyes%3Bitag%3D299/rqh/1/hls_chunk_host/rr6---sn-ci5gup-jwc6.googlevideo.com/xpc/EgVo2aDSNQ%3D%3D/playlist_duration/30/manifest_duration/30/bui/AYUSA3CsiRvw6_PVGyiWPem9o5ts02cxajQ-YsFdSP4S4ja9v2G3ZV603lfSjnSKCgjfqpq6_M-nlrhT/spc/wH4QqxI_4K8eD1dg2bmf/vprv/1/playlist_type/DVR/cps/504/initcwndbps/577500/met/1766117702,/mh/rV/mm/44/mn/sn-ci5gup-jwc6/ms/lva/mv/m/mvi/6/pl/44/rms/lva,lva/dover/11/pacing/0/keepalive/yes/fexp/51552689,51565116,51565681,51580968/mt/1766117066/sparams/expire,ei,ip,id,itag,source,requiressl,ratebypass,live,sgoap,sgovp,rqh,xpc,playlist_duration,manifest_duration,bui,spc,vprv,playlist_type/sig/AJfQdSswRAIgYVnUF_wQC3JqYCPpRSTFHg_LKrHlYcpizKqQwEknpCsCIC-0OBczmzEq9VWd5-7JBdkJb88_G1lFsCNlAZiQv9Sy/lsparams/hls_chunk_host,cps,initcwndbps,met,mh,mm,mn,ms,mv,mvi,pl,rms/lsig/APaTxxMwRAIgfbVR0JcjmWJMgXeU5OF2wZCJvPLKZZbn9ou4fdDsUpQCIBZjfC5Nmwv8xLceCmqpn7hTP20wJHd77CV7EUUnmT8F/playlist/index.m3u8' for reading
2025-12-19T04:15:16.3861129Z frame=    3 fps=0.3 q=5.0 size=N/A time=00:00:15.00 bitrate=N/A speed=1.46x elapsed=0:00:10.30    
2025-12-19T04:15:16.3875756Z [https @ 0000029712276140] Opening 'https://rr6---sn-ci5gup-jwc6.googlevideo.com/videoplayback/id/WhY5UIDpM4c.1/itag/301/source/yt_live_broadcast/expire/1766139300/ei/RNFEafqwMOXd3LUPlZbEEQ/ip/2401:4900:64f2:5a81:94a4:a294:1f3e:3361/requiressl/yes/ratebypass/yes/live/1/sgoap/gir%3Dyes%3Bitag%3D140/sgovp/gir%3Dyes%3Bitag%3D299/rqh/1/hls_chunk_host/rr6---sn-ci5gup-jwc6.googlevideo.com/xpc/EgVo2aDSNQ%3D%3D/playlist_duration/30/manifest_duration/30/bui/AYUSA3CsiRvw6_PVGyiWPem9o5ts02cxajQ-YsFdSP4S4ja9v2G3ZV603lfSjnSKCgjfqpq6_M-nlrhT/spc/wH4QqxI_4K8eD1dg2bmf/vprv/1/playlist_type/DVR/cps/504/initcwndbps/577500/met/1766117702,/mh/rV/mm/44/mn/sn-ci5gup-jwc6/ms/lva/mv/m/mvi/6/pl/44/rms/lva,lva/keepalive/yes/fexp/51552689,51565116,51565681,51580968/mt/1766117066/sparams/expire,ei,ip,id,itag,source,requiressl,ratebypass,live,sgoap,sgovp,rqh,xpc,playlist_duration,manifest_duration,bui,spc,vprv,playlist_type/sig/AJfQdSswRAIgYVnUF_wQC3JqYCPpRSTFHg_LKrHlYcpizKqQwEknpCsCIC-0OBczmzEq9VWd5-7JBdkJb88_G1lFsCNlAZiQv9Sy/lsparams/hls_chunk_host,cps,initcwndbps,met,mh,mm,mn,ms,mv,mvi,pl,rms/lsig/APaTxxMwRAIgfbVR0JcjmWJMgXeU5OF2wZCJvPLKZZbn9ou4fdDsUpQCIBZjfC5Nmwv8xLceCmqpn7hTP20wJHd77CV7EUUnmT8F/playlist/index.m3u8/sq/81/goap/lmt%3D1/govp/lmt%3D1/dur/5.000/file/seg.ts' for reading
2025-12-19T04:15:17.3409051Z frame=    3 fps=0.3 q=5.0 size=N/A time=00:00:15.00 bitrate=N/A speed=1.39x elapsed=0:00:10.82    
2025-12-19T04:15:17.8591576Z frame=    4 fps=0.4 q=5.0 size=N/A time=00:00:20.00 bitrate=N/A speed=1.76x elapsed=0:00:11.33    
2025-12-19T04:15:18.3853048Z frame=    4 fps=0.3 q=5.0 size=N/A time=00:00:20.00 bitrate=N/A speed=1.69x elapsed=0:00:11.85    
2025-12-19T04:15:18.9017725Z frame=    4 fps=0.3 q=5.0 size=N/A time=00:00:20.00 bitrate=N/A speed=1.62x elapsed=0:00:12.37    
2025-12-19T04:15:19.4283157Z frame=    4 fps=0.3 q=5.0 size=N/A time=00:00:20.00 bitrate=N/A speed=1.55x elapsed=0:00:12.89    
2025-12-19T04:15:19.9427900Z frame=    4 fps=0.3 q=5.0 size=N/A time=00:00:20.00 bitrate=N/A speed=1.49x elapsed=0:00:13.41    
2025-12-19T04:15:20.4506405Z frame=    4 fps=0.3 q=5.0 size=N/A time=00:00:20.00 bitrate=N/A speed=1.44x elapsed=0:00:13.93    
2025-12-19T04:15:20.9739090Z frame=    4 fps=0.3 q=5.0 size=N/A time=00:00:20.00 bitrate=N/A speed=1.38x elapsed=0:00:14.44    
2025-12-19T04:15:21.4415386Z frame=    4 fps=0.3 q=5.0 size=N/A time=00:00:20.00 bitrate=N/A speed=1.34x elapsed=0:00:14.96    
2025-12-19T04:15:21.4431387Z [https @ 0000029712dcf900] Opening 'https://manifest.googlevideo.com/api/manifest/hls_playlist/expire/1766139300/ei/RNFEafqwMOXd3LUPlZbEEQ/ip/2401:4900:64f2:5a81:94a4:a294:1f3e:3361/id/WhY5UIDpM4c.1/itag/301/source/yt_live_broadcast/requiressl/yes/ratebypass/yes/live/1/sgoap/gir%3Dyes%3Bitag%3D140/sgovp/gir%3Dyes%3Bitag%3D299/rqh/1/hls_chunk_host/rr6---sn-ci5gup-jwc6.googlevideo.com/xpc/EgVo2aDSNQ%3D%3D/playlist_duration/30/manifest_duration/30/bui/AYUSA3CsiRvw6_PVGyiWPem9o5ts02cxajQ-YsFdSP4S4ja9v2G3ZV603lfSjnSKCgjfqpq6_M-nlrhT/spc/wH4QqxI_4K8eD1dg2bmf/vprv/1/playlist_type/DVR/cps/504/initcwndbps/577500/met/1766117702,/mh/rV/mm/44/mn/sn-ci5gup-jwc6/ms/lva/mv/m/mvi/6/pl/44/rms/lva,lva/dover/11/pacing/0/keepalive/yes/fexp/51552689,51565116,51565681,51580968/mt/1766117066/sparams/expire,ei,ip,id,itag,source,requiressl,ratebypass,live,sgoap,sgovp,rqh,xpc,playlist_duration,manifest_duration,bui,spc,vprv,playlist_type/sig/AJfQdSswRAIgYVnUF_wQC3JqYCPpRSTFHg_LKrHlYcpizKqQwEknpCsCIC-0OBczmzEq9VWd5-7JBdkJb88_G1lFsCNlAZiQv9Sy/lsparams/hls_chunk_host,cps,initcwndbps,met,mh,mm,mn,ms,mv,mvi,pl,rms/lsig/APaTxxMwRAIgfbVR0JcjmWJMgXeU5OF2wZCJvPLKZZbn9ou4fdDsUpQCIBZjfC5Nmwv8xLceCmqpn7hTP20wJHd77CV7EUUnmT8F/playlist/index.m3u8' for reading
2025-12-19T04:15:21.6742414Z frame=    4 fps=0.3 q=5.0 size=N/A time=00:00:20.00 bitrate=N/A speed=1.29x elapsed=0:00:15.47    
2025-12-19T04:15:21.6747617Z [https @ 0000029712276140] Opening 'https://rr6---sn-ci5gup-jwc6.googlevideo.com/videoplayback/id/WhY5UIDpM4c.1/itag/301/source/yt_live_broadcast/expire/1766139300/ei/RNFEafqwMOXd3LUPlZbEEQ/ip/2401:4900:64f2:5a81:94a4:a294:1f3e:3361/requiressl/yes/ratebypass/yes/live/1/sgoap/gir%3Dyes%3Bitag%3D140/sgovp/gir%3Dyes%3Bitag%3D299/rqh/1/hls_chunk_host/rr6---sn-ci5gup-jwc6.googlevideo.com/xpc/EgVo2aDSNQ%3D%3D/playlist_duration/30/manifest_duration/30/bui/AYUSA3CsiRvw6_PVGyiWPem9o5ts02cxajQ-YsFdSP4S4ja9v2G3ZV603lfSjnSKCgjfqpq6_M-nlrhT/spc/wH4QqxI_4K8eD1dg2bmf/vprv/1/playlist_type/DVR/cps/504/initcwndbps/577500/met/1766117702,/mh/rV/mm/44/mn/sn-ci5gup-jwc6/ms/lva/mv/m/mvi/6/pl/44/rms/lva,lva/keepalive/yes/fexp/51552689,51565116,51565681,51580968/mt/1766117066/sparams/expire,ei,ip,id,itag,source,requiressl,ratebypass,live,sgoap,sgovp,rqh,xpc,playlist_duration,manifest_duration,bui,spc,vprv,playlist_type/sig/AJfQdSswRAIgYVnUF_wQC3JqYCPpRSTFHg_LKrHlYcpizKqQwEknpCsCIC-0OBczmzEq9VWd5-7JBdkJb88_G1lFsCNlAZiQv9Sy/lsparams/hls_chunk_host,cps,initcwndbps,met,mh,mm,mn,ms,mv,mvi,pl,rms/lsig/APaTxxMwRAIgfbVR0JcjmWJMgXeU5OF2wZCJvPLKZZbn9ou4fdDsUpQCIBZjfC5Nmwv8xLceCmqpn7hTP20wJHd77CV7EUUnmT8F/playlist/index.m3u8/sq/82/goap/lmt%3D1/govp/lmt%3D1/dur/5.000/file/seg.ts' for reading
2025-12-19T04:15:22.5240732Z frame=    4 fps=0.3 q=5.0 size=N/A time=00:00:20.00 bitrate=N/A speed=1.25x elapsed=0:00:15.99    
2025-12-19T04:15:23.0287647Z frame=    5 fps=0.3 q=5.0 size=N/A time=00:00:25.00 bitrate=N/A speed=1.51x elapsed=0:00:16.51    
2025-12-19T04:15:23.5443936Z frame=    5 fps=0.3 q=5.0 size=N/A time=00:00:25.00 bitrate=N/A speed=1.47x elapsed=0:00:17.01    
2025-12-19T04:15:24.0706416Z frame=    5 fps=0.3 q=5.0 size=N/A time=00:00:25.00 bitrate=N/A speed=1.43x elapsed=0:00:17.53    
2025-12-19T04:15:24.5855673Z frame=    5 fps=0.3 q=5.0 size=N/A time=00:00:25.00 bitrate=N/A speed=1.38x elapsed=0:00:18.06    
2025-12-19T04:15:25.0936499Z frame=    5 fps=0.3 q=5.0 size=N/A time=00:00:25.00 bitrate=N/A speed=1.35x elapsed=0:00:18.57    
2025-12-19T04:15:25.6160328Z frame=    5 fps=0.3 q=5.0 size=N/A time=00:00:25.00 bitrate=N/A speed=1.31x elapsed=0:00:19.08    
2025-12-19T04:15:26.1311458Z frame=    5 fps=0.3 q=5.0 size=N/A time=00:00:25.00 bitrate=N/A speed=1.28x elapsed=0:00:19.60    
2025-12-19T04:15:26.6417140Z frame=    5 fps=0.2 q=5.0 size=N/A time=00:00:25.00 bitrate=N/A speed=1.24x elapsed=0:00:20.12    
2025-12-19T04:15:26.7353295Z frame=    5 fps=0.2 q=5.0 size=N/A time=00:00:25.00 bitrate=N/A speed=1.21x elapsed=0:00:20.63    
2025-12-19T04:15:26.7375348Z [https @ 0000029712dcf900] Opening 'https://manifest.googlevideo.com/api/manifest/hls_playlist/expire/1766139300/ei/RNFEafqwMOXd3LUPlZbEEQ/ip/2401:4900:64f2:5a81:94a4:a294:1f3e:3361/id/WhY5UIDpM4c.1/itag/301/source/yt_live_broadcast/requiressl/yes/ratebypass/yes/live/1/sgoap/gir%3Dyes%3Bitag%3D140/sgovp/gir%3Dyes%3Bitag%3D299/rqh/1/hls_chunk_host/rr6---sn-ci5gup-jwc6.googlevideo.com/xpc/EgVo2aDSNQ%3D%3D/playlist_duration/30/manifest_duration/30/bui/AYUSA3CsiRvw6_PVGyiWPem9o5ts02cxajQ-YsFdSP4S4ja9v2G3ZV603lfSjnSKCgjfqpq6_M-nlrhT/spc/wH4QqxI_4K8eD1dg2bmf/vprv/1/playlist_type/DVR/cps/504/initcwndbps/577500/met/1766117702,/mh/rV/mm/44/mn/sn-ci5gup-jwc6/ms/lva/mv/m/mvi/6/pl/44/rms/lva,lva/dover/11/pacing/0/keepalive/yes/fexp/51552689,51565116,51565681,51580968/mt/1766117066/sparams/expire,ei,ip,id,itag,source,requiressl,ratebypass,live,sgoap,sgovp,rqh,xpc,playlist_duration,manifest_duration,bui,spc,vprv,playlist_type/sig/AJfQdSswRAIgYVnUF_wQC3JqYCPpRSTFHg_LKrHlYcpizKqQwEknpCsCIC-0OBczmzEq9VWd5-7JBdkJb88_G1lFsCNlAZiQv9Sy/lsparams/hls_chunk_host,cps,initcwndbps,met,mh,mm,mn,ms,mv,mvi,pl,rms/lsig/APaTxxMwRAIgfbVR0JcjmWJMgXeU5OF2wZCJvPLKZZbn9ou4fdDsUpQCIBZjfC5Nmwv8xLceCmqpn7hTP20wJHd77CV7EUUnmT8F/playlist/index.m3u8' for reading
2025-12-19T04:15:26.9697879Z [https @ 0000029712276140] Opening 'https://rr6---sn-ci5gup-jwc6.googlevideo.com/videoplayback/id/WhY5UIDpM4c.1/itag/301/source/yt_live_broadcast/expire/1766139300/ei/RNFEafqwMOXd3LUPlZbEEQ/ip/2401:4900:64f2:5a81:94a4:a294:1f3e:3361/requiressl/yes/ratebypass/yes/live/1/sgoap/gir%3Dyes%3Bitag%3D140/sgovp/gir%3Dyes%3Bitag%3D299/rqh/1/hls_chunk_host/rr6---sn-ci5gup-jwc6.googlevideo.com/xpc/EgVo2aDSNQ%3D%3D/playlist_duration/30/manifest_duration/30/bui/AYUSA3CsiRvw6_PVGyiWPem9o5ts02cxajQ-YsFdSP4S4ja9v2G3ZV603lfSjnSKCgjfqpq6_M-nlrhT/spc/wH4QqxI_4K8eD1dg2bmf/vprv/1/playlist_type/DVR/cps/504/initcwndbps/577500/met/1766117702,/mh/rV/mm/44/mn/sn-ci5gup-jwc6/ms/lva/mv/m/mvi/6/pl/44/rms/lva,lva/keepalive/yes/fexp/51552689,51565116,51565681,51580968/mt/1766117066/sparams/expire,ei,ip,id,itag,source,requiressl,ratebypass,live,sgoap,sgovp,rqh,xpc,playlist_duration,manifest_duration,bui,spc,vprv,playlist_type/sig/AJfQdSswRAIgYVnUF_wQC3JqYCPpRSTFHg_LKrHlYcpizKqQwEknpCsCIC-0OBczmzEq9VWd5-7JBdkJb88_G1lFsCNlAZiQv9Sy/lsparams/hls_chunk_host,cps,initcwndbps,met,mh,mm,mn,ms,mv,mvi,pl,rms/lsig/APaTxxMwRAIgfbVR0JcjmWJMgXeU5OF2wZCJvPLKZZbn9ou4fdDsUpQCIBZjfC5Nmwv8xLceCmqpn7hTP20wJHd77CV7EUUnmT8F/playlist/index.m3u8/sq/83/goap/lmt%3D1/govp/lmt%3D1/dur/5.000/file/seg.ts' for reading
2025-12-19T04:15:27.6791887Z frame=    5 fps=0.2 q=5.0 size=N/A time=00:00:25.00 bitrate=N/A speed=1.18x elapsed=0:00:21.14    
2025-12-19T04:15:28.1908551Z frame=    5 fps=0.2 q=5.0 size=N/A time=00:00:25.00 bitrate=N/A speed=1.15x elapsed=0:00:21.67    
2025-12-19T04:15:28.2746042Z frame=    5 fps=0.2 q=5.0 size=N/A time=00:00:25.00 bitrate=N/A speed=1.13x elapsed=0:00:22.18    
2025-12-19T04:15:28.2759045Z [https @ 00000297124d93c0] Opening 'https://rr6---sn-ci5gup-jwc6.googlevideo.com/videoplayback/id/WhY5UIDpM4c.1/itag/301/source/yt_live_broadcast/expire/1766139300/ei/RNFEafqwMOXd3LUPlZbEEQ/ip/2401:4900:64f2:5a81:94a4:a294:1f3e:3361/requiressl/yes/ratebypass/yes/live/1/sgoap/gir%3Dyes%3Bitag%3D140/sgovp/gir%3Dyes%3Bitag%3D299/rqh/1/hls_chunk_host/rr6---sn-ci5gup-jwc6.googlevideo.com/xpc/EgVo2aDSNQ%3D%3D/playlist_duration/30/manifest_duration/30/bui/AYUSA3CsiRvw6_PVGyiWPem9o5ts02cxajQ-YsFdSP4S4ja9v2G3ZV603lfSjnSKCgjfqpq6_M-nlrhT/spc/wH4QqxI_4K8eD1dg2bmf/vprv/1/playlist_type/DVR/cps/504/initcwndbps/577500/met/1766117702,/mh/rV/mm/44/mn/sn-ci5gup-jwc6/ms/lva/mv/m/mvi/6/pl/44/rms/lva,lva/keepalive/yes/fexp/51552689,51565116,51565681,51580968/mt/1766117066/sparams/expire,ei,ip,id,itag,source,requiressl,ratebypass,live,sgoap,sgovp,rqh,xpc,playlist_duration,manifest_duration,bui,spc,vprv,playlist_type/sig/AJfQdSswRAIgYVnUF_wQC3JqYCPpRSTFHg_LKrHlYcpizKqQwEknpCsCIC-0OBczmzEq9VWd5-7JBdkJb88_G1lFsCNlAZiQv9Sy/lsparams/hls_chunk_host,cps,initcwndbps,met,mh,mm,mn,ms,mv,mvi,pl,rms/lsig/APaTxxMwRAIgfbVR0JcjmWJMgXeU5OF2wZCJvPLKZZbn9ou4fdDsUpQCIBZjfC5Nmwv8xLceCmqpn7hTP20wJHd77CV7EUUnmT8F/playlist/index.m3u8/sq/84/goap/lmt%3D1/govp/lmt%3D1/dur/5.000/file/seg.ts' for reading
2025-12-19T04:15:29.2276427Z frame=    5 fps=0.2 q=5.0 size=N/A time=00:00:25.00 bitrate=N/A speed= 1.1x elapsed=0:00:22.69    
2025-12-19T04:15:29.7374345Z frame=    5 fps=0.2 q=5.0 size=N/A time=00:00:25.00 bitrate=N/A speed=1.08x elapsed=0:00:23.21    
2025-12-19T04:15:30.2592155Z frame=    5 fps=0.2 q=5.0 size=N/A time=00:00:25.00 bitrate=N/A speed=1.05x elapsed=0:00:23.72    
2025-12-19T04:15:30.7699262Z frame=    5 fps=0.2 q=5.0 size=N/A time=00:00:25.00 bitrate=N/A speed=1.03x elapsed=0:00:24.25    
2025-12-19T04:15:31.2785008Z frame=    5 fps=0.2 q=5.0 size=N/A time=00:00:25.00 bitrate=N/A speed=1.01x elapsed=0:00:24.76    
2025-12-19T04:15:31.7923061Z frame=    5 fps=0.2 q=5.0 size=N/A time=00:00:25.00 bitrate=N/A speed=0.989x elapsed=0:00:25.26    
2025-12-19T04:15:32.3142027Z frame=    5 fps=0.2 q=5.0 size=N/A time=00:00:25.00 bitrate=N/A speed=0.97x elapsed=0:00:25.78    
2025-12-19T04:15:32.8257946Z frame=    5 fps=0.2 q=5.0 size=N/A time=00:00:25.00 bitrate=N/A speed=0.95x elapsed=0:00:26.30    
2025-12-19T04:15:33.3474865Z frame=    6 fps=0.2 q=5.0 size=N/A time=00:00:30.00 bitrate=N/A speed=1.12x elapsed=0:00:26.81    
2025-12-19T04:15:33.8708082Z frame=    6 fps=0.2 q=5.0 size=N/A time=00:00:30.00 bitrate=N/A speed= 1.1x elapsed=0:00:27.33    
2025-12-19T04:15:34.3878200Z frame=    6 fps=0.2 q=5.0 size=N/A time=00:00:30.00 bitrate=N/A speed=1.08x elapsed=0:00:27.86    
2025-12-19T04:15:34.9071415Z frame=    6 fps=0.2 q=5.0 size=N/A time=00:00:30.00 bitrate=N/A speed=1.06x elapsed=0:00:28.37    
2025-12-19T04:15:35.3717247Z frame=    6 fps=0.2 q=5.0 size=N/A time=00:00:30.00 bitrate=N/A speed=1.04x elapsed=0:00:28.89    
2025-12-19T04:15:35.3746205Z [https @ 0000029712dcf900] Opening 'https://manifest.googlevideo.com/api/manifest/hls_playlist/expire/1766139300/ei/RNFEafqwMOXd3LUPlZbEEQ/ip/2401:4900:64f2:5a81:94a4:a294:1f3e:3361/id/WhY5UIDpM4c.1/itag/301/source/yt_live_broadcast/requiressl/yes/ratebypass/yes/live/1/sgoap/gir%3Dyes%3Bitag%3D140/sgovp/gir%3Dyes%3Bitag%3D299/rqh/1/hls_chunk_host/rr6---sn-ci5gup-jwc6.googlevideo.com/xpc/EgVo2aDSNQ%3D%3D/playlist_duration/30/manifest_duration/30/bui/AYUSA3CsiRvw6_PVGyiWPem9o5ts02cxajQ-YsFdSP4S4ja9v2G3ZV603lfSjnSKCgjfqpq6_M-nlrhT/spc/wH4QqxI_4K8eD1dg2bmf/vprv/1/playlist_type/DVR/cps/504/initcwndbps/577500/met/1766117702,/mh/rV/mm/44/mn/sn-ci5gup-jwc6/ms/lva/mv/m/mvi/6/pl/44/rms/lva,lva/dover/11/pacing/0/keepalive/yes/fexp/51552689,51565116,51565681,51580968/mt/1766117066/sparams/expire,ei,ip,id,itag,source,requiressl,ratebypass,live,sgoap,sgovp,rqh,xpc,playlist_duration,manifest_duration,bui,spc,vprv,playlist_type/sig/AJfQdSswRAIgYVnUF_wQC3JqYCPpRSTFHg_LKrHlYcpizKqQwEknpCsCIC-0OBczmzEq9VWd5-7JBdkJb88_G1lFsCNlAZiQv9Sy/lsparams/hls_chunk_host,cps,initcwndbps,met,mh,mm,mn,ms,mv,mvi,pl,rms/lsig/APaTxxMwRAIgfbVR0JcjmWJMgXeU5OF2wZCJvPLKZZbn9ou4fdDsUpQCIBZjfC5Nmwv8xLceCmqpn7hTP20wJHd77CV7EUUnmT8F/playlist/index.m3u8' for reading
2025-12-19T04:15:35.5922671Z frame=    6 fps=0.2 q=5.0 size=N/A time=00:00:30.00 bitrate=N/A speed=1.02x elapsed=0:00:29.42    
2025-12-19T04:15:35.5931171Z [https @ 0000029712276140] Opening 'https://rr6---sn-ci5gup-jwc6.googlevideo.com/videoplayback/id/WhY5UIDpM4c.1/itag/301/source/yt_live_broadcast/expire/1766139300/ei/RNFEafqwMOXd3LUPlZbEEQ/ip/2401:4900:64f2:5a81:94a4:a294:1f3e:3361/requiressl/yes/ratebypass/yes/live/1/sgoap/gir%3Dyes%3Bitag%3D140/sgovp/gir%3Dyes%3Bitag%3D299/rqh/1/hls_chunk_host/rr6---sn-ci5gup-jwc6.googlevideo.com/xpc/EgVo2aDSNQ%3D%3D/playlist_duration/30/manifest_duration/30/bui/AYUSA3CsiRvw6_PVGyiWPem9o5ts02cxajQ-YsFdSP4S4ja9v2G3ZV603lfSjnSKCgjfqpq6_M-nlrhT/spc/wH4QqxI_4K8eD1dg2bmf/vprv/1/playlist_type/DVR/cps/504/initcwndbps/577500/met/1766117702,/mh/rV/mm/44/mn/sn-ci5gup-jwc6/ms/lva/mv/m/mvi/6/pl/44/rms/lva,lva/keepalive/yes/fexp/51552689,51565116,51565681,51580968/mt/1766117066/sparams/expire,ei,ip,id,itag,source,requiressl,ratebypass,live,sgoap,sgovp,rqh,xpc,playlist_duration,manifest_duration,bui,spc,vprv,playlist_type/sig/AJfQdSswRAIgYVnUF_wQC3JqYCPpRSTFHg_LKrHlYcpizKqQwEknpCsCIC-0OBczmzEq9VWd5-7JBdkJb88_G1lFsCNlAZiQv9Sy/lsparams/hls_chunk_host,cps,initcwndbps,met,mh,mm,mn,ms,mv,mvi,pl,rms/lsig/APaTxxMwRAIgfbVR0JcjmWJMgXeU5OF2wZCJvPLKZZbn9ou4fdDsUpQCIBZjfC5Nmwv8xLceCmqpn7hTP20wJHd77CV7EUUnmT8F/playlist/index.m3u8/sq/85/goap/lmt%3D1/govp/lmt%3D1/dur/5.000/file/seg.ts' for reading
2025-12-19T04:15:36.4545043Z frame=    6 fps=0.2 q=5.0 size=N/A time=00:00:30.00 bitrate=N/A speed=   1x elapsed=0:00:29.92    
2025-12-19T04:15:36.9679102Z frame=    7 fps=0.2 q=5.0 size=N/A time=00:00:35.00 bitrate=N/A speed=1.15x elapsed=0:00:30.44    
2025-12-19T04:15:37.4823765Z frame=    8 fps=0.3 q=5.0 size=N/A time=00:00:40.00 bitrate=N/A speed=1.29x elapsed=0:00:30.95    
2025-12-19T04:15:38.0082053Z frame=    8 fps=0.3 q=5.0 size=N/A time=00:00:40.00 bitrate=N/A speed=1.27x elapsed=0:00:31.47    
2025-12-19T04:15:38.5204915Z frame=    8 fps=0.3 q=5.0 size=N/A time=00:00:40.00 bitrate=N/A speed=1.25x elapsed=0:00:31.99    
2025-12-19T04:15:39.0283545Z frame=    8 fps=0.2 q=5.0 size=N/A time=00:00:40.00 bitrate=N/A speed=1.23x elapsed=0:00:32.51    
2025-12-19T04:15:39.5504984Z frame=    8 fps=0.2 q=5.0 size=N/A time=00:00:40.00 bitrate=N/A speed=1.21x elapsed=0:00:33.01    
2025-12-19T04:15:40.0682452Z frame=    8 fps=0.2 q=5.0 size=N/A time=00:00:40.00 bitrate=N/A speed=1.19x elapsed=0:00:33.54    
2025-12-19T04:15:40.5804709Z frame=    8 fps=0.2 q=5.0 size=N/A time=00:00:40.00 bitrate=N/A speed=1.17x elapsed=0:00:34.05    
2025-12-19T04:15:40.6728452Z frame=    8 fps=0.2 q=5.0 size=N/A time=00:00:40.00 bitrate=N/A speed=1.16x elapsed=0:00:34.57    
2025-12-19T04:15:40.6732703Z [https @ 0000029712dcf900] Opening 'https://manifest.googlevideo.com/api/manifest/hls_playlist/expire/1766139300/ei/RNFEafqwMOXd3LUPlZbEEQ/ip/2401:4900:64f2:5a81:94a4:a294:1f3e:3361/id/WhY5UIDpM4c.1/itag/301/source/yt_live_broadcast/requiressl/yes/ratebypass/yes/live/1/sgoap/gir%3Dyes%3Bitag%3D140/sgovp/gir%3Dyes%3Bitag%3D299/rqh/1/hls_chunk_host/rr6---sn-ci5gup-jwc6.googlevideo.com/xpc/EgVo2aDSNQ%3D%3D/playlist_duration/30/manifest_duration/30/bui/AYUSA3CsiRvw6_PVGyiWPem9o5ts02cxajQ-YsFdSP4S4ja9v2G3ZV603lfSjnSKCgjfqpq6_M-nlrhT/spc/wH4QqxI_4K8eD1dg2bmf/vprv/1/playlist_type/DVR/cps/504/initcwndbps/577500/met/1766117702,/mh/rV/mm/44/mn/sn-ci5gup-jwc6/ms/lva/mv/m/mvi/6/pl/44/rms/lva,lva/dover/11/pacing/0/keepalive/yes/fexp/51552689,51565116,51565681,51580968/mt/1766117066/sparams/expire,ei,ip,id,itag,source,requiressl,ratebypass,live,sgoap,sgovp,rqh,xpc,playlist_duration,manifest_duration,bui,spc,vprv,playlist_type/sig/AJfQdSswRAIgYVnUF_wQC3JqYCPpRSTFHg_LKrHlYcpizKqQwEknpCsCIC-0OBczmzEq9VWd5-7JBdkJb88_G1lFsCNlAZiQv9Sy/lsparams/hls_chunk_host,cps,initcwndbps,met,mh,mm,mn,ms,mv,mvi,pl,rms/lsig/APaTxxMwRAIgfbVR0JcjmWJMgXeU5OF2wZCJvPLKZZbn9ou4fdDsUpQCIBZjfC5Nmwv8xLceCmqpn7hTP20wJHd77CV7EUUnmT8F/playlist/index.m3u8' for reading
2025-12-19T04:15:40.8947453Z [https @ 0000029712276140] Opening 'https://rr6---sn-ci5gup-jwc6.googlevideo.com/videoplayback/id/WhY5UIDpM4c.1/itag/301/source/yt_live_broadcast/expire/1766139300/ei/RNFEafqwMOXd3LUPlZbEEQ/ip/2401:4900:64f2:5a81:94a4:a294:1f3e:3361/requiressl/yes/ratebypass/yes/live/1/sgoap/gir%3Dyes%3Bitag%3D140/sgovp/gir%3Dyes%3Bitag%3D299/rqh/1/hls_chunk_host/rr6---sn-ci5gup-jwc6.googlevideo.com/xpc/EgVo2aDSNQ%3D%3D/playlist_duration/30/manifest_duration/30/bui/AYUSA3CsiRvw6_PVGyiWPem9o5ts02cxajQ-YsFdSP4S4ja9v2G3ZV603lfSjnSKCgjfqpq6_M-nlrhT/spc/wH4QqxI_4K8eD1dg2bmf/vprv/1/playlist_type/DVR/cps/504/initcwndbps/577500/met/1766117702,/mh/rV/mm/44/mn/sn-ci5gup-jwc6/ms/lva/mv/m/mvi/6/pl/44/rms/lva,lva/keepalive/yes/fexp/51552689,51565116,51565681,51580968/mt/1766117066/sparams/expire,ei,ip,id,itag,source,requiressl,ratebypass,live,sgoap,sgovp,rqh,xpc,playlist_duration,manifest_duration,bui,spc,vprv,playlist_type/sig/AJfQdSswRAIgYVnUF_wQC3JqYCPpRSTFHg_LKrHlYcpizKqQwEknpCsCIC-0OBczmzEq9VWd5-7JBdkJb88_G1lFsCNlAZiQv9Sy/lsparams/hls_chunk_host,cps,initcwndbps,met,mh,mm,mn,ms,mv,mvi,pl,rms/lsig/APaTxxMwRAIgfbVR0JcjmWJMgXeU5OF2wZCJvPLKZZbn9ou4fdDsUpQCIBZjfC5Nmwv8xLceCmqpn7hTP20wJHd77CV7EUUnmT8F/playlist/index.m3u8/sq/86/goap/lmt%3D1/govp/lmt%3D1/dur/5.000/file/seg.ts' for reading
2025-12-19T04:15:41.6080442Z frame=    8 fps=0.2 q=5.0 size=N/A time=00:00:40.00 bitrate=N/A speed=1.14x elapsed=0:00:35.08    
2025-12-19T04:15:42.1273109Z frame=    9 fps=0.3 q=5.0 size=N/A time=00:00:45.00 bitrate=N/A speed=1.26x elapsed=0:00:35.59    
2025-12-19T04:15:42.6415101Z frame=    9 fps=0.2 q=5.0 size=N/A time=00:00:45.00 bitrate=N/A speed=1.25x elapsed=0:00:36.11    
2025-12-19T04:15:43.1640282Z frame=    9 fps=0.2 q=5.0 size=N/A time=00:00:45.00 bitrate=N/A speed=1.23x elapsed=0:00:36.63    
2025-12-19T04:15:43.6688741Z frame=    9 fps=0.2 q=5.0 size=N/A time=00:00:45.00 bitrate=N/A speed=1.21x elapsed=0:00:37.15    
2025-12-19T04:15:44.1937482Z frame=    9 fps=0.2 q=5.0 size=N/A time=00:00:45.00 bitrate=N/A speed=1.19x elapsed=0:00:37.65    
2025-12-19T04:15:44.7202303Z frame=    9 fps=0.2 q=5.0 size=N/A time=00:00:45.00 bitrate=N/A speed=1.18x elapsed=0:00:38.18    
2025-12-19T04:15:45.2301484Z frame=    9 fps=0.2 q=5.0 size=N/A time=00:00:45.00 bitrate=N/A speed=1.16x elapsed=0:00:38.71    
2025-12-19T04:15:45.7459255Z frame=    9 fps=0.2 q=5.0 size=N/A time=00:00:45.00 bitrate=N/A speed=1.15x elapsed=0:00:39.22    
2025-12-19T04:15:45.9471150Z frame=    9 fps=0.2 q=5.0 size=N/A time=00:00:45.00 bitrate=N/A speed=1.13x elapsed=0:00:39.73    
2025-12-19T04:15:45.9486202Z [https @ 0000029712dcf900] Opening 'https://manifest.googlevideo.com/api/manifest/hls_playlist/expire/1766139300/ei/RNFEafqwMOXd3LUPlZbEEQ/ip/2401:4900:64f2:5a81:94a4:a294:1f3e:3361/id/WhY5UIDpM4c.1/itag/301/source/yt_live_broadcast/requiressl/yes/ratebypass/yes/live/1/sgoap/gir%3Dyes%3Bitag%3D140/sgovp/gir%3Dyes%3Bitag%3D299/rqh/1/hls_chunk_host/rr6---sn-ci5gup-jwc6.googlevideo.com/xpc/EgVo2aDSNQ%3D%3D/playlist_duration/30/manifest_duration/30/bui/AYUSA3CsiRvw6_PVGyiWPem9o5ts02cxajQ-YsFdSP4S4ja9v2G3ZV603lfSjnSKCgjfqpq6_M-nlrhT/spc/wH4QqxI_4K8eD1dg2bmf/vprv/1/playlist_type/DVR/cps/504/initcwndbps/577500/met/1766117702,/mh/rV/mm/44/mn/sn-ci5gup-jwc6/ms/lva/mv/m/mvi/6/pl/44/rms/lva,lva/dover/11/pacing/0/keepalive/yes/fexp/51552689,51565116,51565681,51580968/mt/1766117066/sparams/expire,ei,ip,id,itag,source,requiressl,ratebypass,live,sgoap,sgovp,rqh,xpc,playlist_duration,manifest_duration,bui,spc,vprv,playlist_type/sig/AJfQdSswRAIgYVnUF_wQC3JqYCPpRSTFHg_LKrHlYcpizKqQwEknpCsCIC-0OBczmzEq9VWd5-7JBdkJb88_G1lFsCNlAZiQv9Sy/lsparams/hls_chunk_host,cps,initcwndbps,met,mh,mm,mn,ms,mv,mvi,pl,rms/lsig/APaTxxMwRAIgfbVR0JcjmWJMgXeU5OF2wZCJvPLKZZbn9ou4fdDsUpQCIBZjfC5Nmwv8xLceCmqpn7hTP20wJHd77CV7EUUnmT8F/playlist/index.m3u8' for reading
2025-12-19T04:15:46.1676657Z [https @ 0000029712276140] Opening 'https://rr6---sn-ci5gup-jwc6.googlevideo.com/videoplayback/id/WhY5UIDpM4c.1/itag/301/source/yt_live_broadcast/expire/1766139300/ei/RNFEafqwMOXd3LUPlZbEEQ/ip/2401:4900:64f2:5a81:94a4:a294:1f3e:3361/requiressl/yes/ratebypass/yes/live/1/sgoap/gir%3Dyes%3Bitag%3D140/sgovp/gir%3Dyes%3Bitag%3D299/rqh/1/hls_chunk_host/rr6---sn-ci5gup-jwc6.googlevideo.com/xpc/EgVo2aDSNQ%3D%3D/playlist_duration/30/manifest_duration/30/bui/AYUSA3CsiRvw6_PVGyiWPem9o5ts02cxajQ-YsFdSP4S4ja9v2G3ZV603lfSjnSKCgjfqpq6_M-nlrhT/spc/wH4QqxI_4K8eD1dg2bmf/vprv/1/playlist_type/DVR/cps/504/initcwndbps/577500/met/1766117702,/mh/rV/mm/44/mn/sn-ci5gup-jwc6/ms/lva/mv/m/mvi/6/pl/44/rms/lva,lva/keepalive/yes/fexp/51552689,51565116,51565681,51580968/mt/1766117066/sparams/expire,ei,ip,id,itag,source,requiressl,ratebypass,live,sgoap,sgovp,rqh,xpc,playlist_duration,manifest_duration,bui,spc,vprv,playlist_type/sig/AJfQdSswRAIgYVnUF_wQC3JqYCPpRSTFHg_LKrHlYcpizKqQwEknpCsCIC-0OBczmzEq9VWd5-7JBdkJb88_G1lFsCNlAZiQv9Sy/lsparams/hls_chunk_host,cps,initcwndbps,met,mh,mm,mn,ms,mv,mvi,pl,rms/lsig/APaTxxMwRAIgfbVR0JcjmWJMgXeU5OF2wZCJvPLKZZbn9ou4fdDsUpQCIBZjfC5Nmwv8xLceCmqpn7hTP20wJHd77CV7EUUnmT8F/playlist/index.m3u8/sq/87/goap/lmt%3D1/govp/lmt%3D1/dur/5.000/file/seg.ts' for reading
2025-12-19T04:15:46.7903178Z frame=    9 fps=0.2 q=5.0 size=N/A time=00:00:45.00 bitrate=N/A speed=1.12x elapsed=0:00:40.26    
2025-12-19T04:15:47.2991682Z frame=   10 fps=0.2 q=5.0 size=N/A time=00:00:50.00 bitrate=N/A speed=1.23x elapsed=0:00:40.78    
2025-12-19T04:15:47.8159405Z frame=   10 fps=0.2 q=5.0 size=N/A time=00:00:50.00 bitrate=N/A speed=1.21x elapsed=0:00:41.29    
2025-12-19T04:15:48.3283765Z frame=   10 fps=0.2 q=5.0 size=N/A time=00:00:50.00 bitrate=N/A speed= 1.2x elapsed=0:00:41.80    
2025-12-19T04:15:48.8409003Z frame=   10 fps=0.2 q=5.0 size=N/A time=00:00:50.00 bitrate=N/A speed=1.18x elapsed=0:00:42.31    
2025-12-19T04:15:49.3656391Z frame=   10 fps=0.2 q=5.0 size=N/A time=00:00:50.00 bitrate=N/A speed=1.17x elapsed=0:00:42.83    
2025-12-19T04:15:49.8787901Z frame=   10 fps=0.2 q=5.0 size=N/A time=00:00:50.00 bitrate=N/A speed=1.15x elapsed=0:00:43.35    
2025-12-19T04:15:50.3953914Z frame=   10 fps=0.2 q=5.0 size=N/A time=00:00:50.00 bitrate=N/A speed=1.14x elapsed=0:00:43.86    
2025-12-19T04:15:50.9015522Z frame=   10 fps=0.2 q=5.0 size=N/A time=00:00:50.00 bitrate=N/A speed=1.13x elapsed=0:00:44.38    
2025-12-19T04:15:51.2058728Z frame=   10 fps=0.2 q=5.0 size=N/A time=00:00:50.00 bitrate=N/A speed=1.11x elapsed=0:00:44.89    
2025-12-19T04:15:51.2062326Z [https @ 0000029712dcf900] Opening 'https://manifest.googlevideo.com/api/manifest/hls_playlist/expire/1766139300/ei/RNFEafqwMOXd3LUPlZbEEQ/ip/2401:4900:64f2:5a81:94a4:a294:1f3e:3361/id/WhY5UIDpM4c.1/itag/301/source/yt_live_broadcast/requiressl/yes/ratebypass/yes/live/1/sgoap/gir%3Dyes%3Bitag%3D140/sgovp/gir%3Dyes%3Bitag%3D299/rqh/1/hls_chunk_host/rr6---sn-ci5gup-jwc6.googlevideo.com/xpc/EgVo2aDSNQ%3D%3D/playlist_duration/30/manifest_duration/30/bui/AYUSA3CsiRvw6_PVGyiWPem9o5ts02cxajQ-YsFdSP4S4ja9v2G3ZV603lfSjnSKCgjfqpq6_M-nlrhT/spc/wH4QqxI_4K8eD1dg2bmf/vprv/1/playlist_type/DVR/cps/504/initcwndbps/577500/met/1766117702,/mh/rV/mm/44/mn/sn-ci5gup-jwc6/ms/lva/mv/m/mvi/6/pl/44/rms/lva,lva/dover/11/pacing/0/keepalive/yes/fexp/51552689,51565116,51565681,51580968/mt/1766117066/sparams/expire,ei,ip,id,itag,source,requiressl,ratebypass,live,sgoap,sgovp,rqh,xpc,playlist_duration,manifest_duration,bui,spc,vprv,playlist_type/sig/AJfQdSswRAIgYVnUF_wQC3JqYCPpRSTFHg_LKrHlYcpizKqQwEknpCsCIC-0OBczmzEq9VWd5-7JBdkJb88_G1lFsCNlAZiQv9Sy/lsparams/hls_chunk_host,cps,initcwndbps,met,mh,mm,mn,ms,mv,mvi,pl,rms/lsig/APaTxxMwRAIgfbVR0JcjmWJMgXeU5OF2wZCJvPLKZZbn9ou4fdDsUpQCIBZjfC5Nmwv8xLceCmqpn7hTP20wJHd77CV7EUUnmT8F/playlist/index.m3u8' for reading
2025-12-19T04:15:51.4190529Z frame=   10 fps=0.2 q=5.0 size=N/A time=00:00:50.00 bitrate=N/A speed= 1.1x elapsed=0:00:45.40    
2025-12-19T04:15:51.4206218Z [https @ 0000029712276140] Opening 'https://rr6---sn-ci5gup-jwc6.googlevideo.com/videoplayback/id/WhY5UIDpM4c.1/itag/301/source/yt_live_broadcast/expire/1766139300/ei/RNFEafqwMOXd3LUPlZbEEQ/ip/2401:4900:64f2:5a81:94a4:a294:1f3e:3361/requiressl/yes/ratebypass/yes/live/1/sgoap/gir%3Dyes%3Bitag%3D140/sgovp/gir%3Dyes%3Bitag%3D299/rqh/1/hls_chunk_host/rr6---sn-ci5gup-jwc6.googlevideo.com/xpc/EgVo2aDSNQ%3D%3D/playlist_duration/30/manifest_duration/30/bui/AYUSA3CsiRvw6_PVGyiWPem9o5ts02cxajQ-YsFdSP4S4ja9v2G3ZV603lfSjnSKCgjfqpq6_M-nlrhT/spc/wH4QqxI_4K8eD1dg2bmf/vprv/1/playlist_type/DVR/cps/504/initcwndbps/577500/met/1766117702,/mh/rV/mm/44/mn/sn-ci5gup-jwc6/ms/lva/mv/m/mvi/6/pl/44/rms/lva,lva/keepalive/yes/fexp/51552689,51565116,51565681,51580968/mt/1766117066/sparams/expire,ei,ip,id,itag,source,requiressl,ratebypass,live,sgoap,sgovp,rqh,xpc,playlist_duration,manifest_duration,bui,spc,vprv,playlist_type/sig/AJfQdSswRAIgYVnUF_wQC3JqYCPpRSTFHg_LKrHlYcpizKqQwEknpCsCIC-0OBczmzEq9VWd5-7JBdkJb88_G1lFsCNlAZiQv9Sy/lsparams/hls_chunk_host,cps,initcwndbps,met,mh,mm,mn,ms,mv,mvi,pl,rms/lsig/APaTxxMwRAIgfbVR0JcjmWJMgXeU5OF2wZCJvPLKZZbn9ou4fdDsUpQCIBZjfC5Nmwv8xLceCmqpn7hTP20wJHd77CV7EUUnmT8F/playlist/index.m3u8/sq/88/goap/lmt%3D1/govp/lmt%3D1/dur/5.000/file/seg.ts' for reading
2025-12-19T04:15:52.4562849Z frame=   11 fps=0.2 q=5.0 size=N/A time=00:00:55.00 bitrate=N/A speed= 1.2x elapsed=0:00:45.92    
2025-12-19T04:15:52.9668663Z frame=   11 fps=0.2 q=5.0 size=N/A time=00:00:55.00 bitrate=N/A speed=1.18x elapsed=0:00:46.44    
2025-12-19T04:15:53.4859691Z frame=   11 fps=0.2 q=5.0 size=N/A time=00:00:55.00 bitrate=N/A speed=1.17x elapsed=0:00:46.95    
2025-12-19T04:15:54.0025633Z frame=   11 fps=0.2 q=5.0 size=N/A time=00:00:55.00 bitrate=N/A speed=1.16x elapsed=0:00:47.47    
2025-12-19T04:15:54.5182168Z frame=   11 fps=0.2 q=5.0 size=N/A time=00:00:55.00 bitrate=N/A speed=1.15x elapsed=0:00:47.99    
2025-12-19T04:15:55.0303276Z frame=   11 fps=0.2 q=5.0 size=N/A time=00:00:55.00 bitrate=N/A speed=1.13x elapsed=0:00:48.50    
2025-12-19T04:15:55.5447333Z frame=   11 fps=0.2 q=5.0 size=N/A time=00:00:55.00 bitrate=N/A speed=1.12x elapsed=0:00:49.02    
2025-12-19T04:15:56.0692808Z frame=   11 fps=0.2 q=5.0 size=N/A time=00:00:55.00 bitrate=N/A speed=1.11x elapsed=0:00:49.53    
2025-12-19T04:15:56.4589433Z frame=   11 fps=0.2 q=5.0 size=N/A time=00:00:55.00 bitrate=N/A speed= 1.1x elapsed=0:00:50.06    
2025-12-19T04:15:56.4603574Z [https @ 0000029712dcf900] Opening 'https://manifest.googlevideo.com/api/manifest/hls_playlist/expire/1766139300/ei/RNFEafqwMOXd3LUPlZbEEQ/ip/2401:4900:64f2:5a81:94a4:a294:1f3e:3361/id/WhY5UIDpM4c.1/itag/301/source/yt_live_broadcast/requiressl/yes/ratebypass/yes/live/1/sgoap/gir%3Dyes%3Bitag%3D140/sgovp/gir%3Dyes%3Bitag%3D299/rqh/1/hls_chunk_host/rr6---sn-ci5gup-jwc6.googlevideo.com/xpc/EgVo2aDSNQ%3D%3D/playlist_duration/30/manifest_duration/30/bui/AYUSA3CsiRvw6_PVGyiWPem9o5ts02cxajQ-YsFdSP4S4ja9v2G3ZV603lfSjnSKCgjfqpq6_M-nlrhT/spc/wH4QqxI_4K8eD1dg2bmf/vprv/1/playlist_type/DVR/cps/504/initcwndbps/577500/met/1766117702,/mh/rV/mm/44/mn/sn-ci5gup-jwc6/ms/lva/mv/m/mvi/6/pl/44/rms/lva,lva/dover/11/pacing/0/keepalive/yes/fexp/51552689,51565116,51565681,51580968/mt/1766117066/sparams/expire,ei,ip,id,itag,source,requiressl,ratebypass,live,sgoap,sgovp,rqh,xpc,playlist_duration,manifest_duration,bui,spc,vprv,playlist_type/sig/AJfQdSswRAIgYVnUF_wQC3JqYCPpRSTFHg_LKrHlYcpizKqQwEknpCsCIC-0OBczmzEq9VWd5-7JBdkJb88_G1lFsCNlAZiQv9Sy/lsparams/hls_chunk_host,cps,initcwndbps,met,mh,mm,mn,ms,mv,mvi,pl,rms/lsig/APaTxxMwRAIgfbVR0JcjmWJMgXeU5OF2wZCJvPLKZZbn9ou4fdDsUpQCIBZjfC5Nmwv8xLceCmqpn7hTP20wJHd77CV7EUUnmT8F/playlist/index.m3u8' for reading
2025-12-19T04:15:56.6609933Z frame=   11 fps=0.2 q=5.0 size=N/A time=00:00:55.00 bitrate=N/A speed=1.09x elapsed=0:00:50.57    
2025-12-19T04:15:56.6614090Z [https @ 0000029712276140] Opening 'https://rr6---sn-ci5gup-jwc6.googlevideo.com/videoplayback/id/WhY5UIDpM4c.1/itag/301/source/yt_live_broadcast/expire/1766139300/ei/RNFEafqwMOXd3LUPlZbEEQ/ip/2401:4900:64f2:5a81:94a4:a294:1f3e:3361/requiressl/yes/ratebypass/yes/live/1/sgoap/gir%3Dyes%3Bitag%3D140/sgovp/gir%3Dyes%3Bitag%3D299/rqh/1/hls_chunk_host/rr6---sn-ci5gup-jwc6.googlevideo.com/xpc/EgVo2aDSNQ%3D%3D/playlist_duration/30/manifest_duration/30/bui/AYUSA3CsiRvw6_PVGyiWPem9o5ts02cxajQ-YsFdSP4S4ja9v2G3ZV603lfSjnSKCgjfqpq6_M-nlrhT/spc/wH4QqxI_4K8eD1dg2bmf/vprv/1/playlist_type/DVR/cps/504/initcwndbps/577500/met/1766117702,/mh/rV/mm/44/mn/sn-ci5gup-jwc6/ms/lva/mv/m/mvi/6/pl/44/rms/lva,lva/keepalive/yes/fexp/51552689,51565116,51565681,51580968/mt/1766117066/sparams/expire,ei,ip,id,itag,source,requiressl,ratebypass,live,sgoap,sgovp,rqh,xpc,playlist_duration,manifest_duration,bui,spc,vprv,playlist_type/sig/AJfQdSswRAIgYVnUF_wQC3JqYCPpRSTFHg_LKrHlYcpizKqQwEknpCsCIC-0OBczmzEq9VWd5-7JBdkJb88_G1lFsCNlAZiQv9Sy/lsparams/hls_chunk_host,cps,initcwndbps,met,mh,mm,mn,ms,mv,mvi,pl,rms/lsig/APaTxxMwRAIgfbVR0JcjmWJMgXeU5OF2wZCJvPLKZZbn9ou4fdDsUpQCIBZjfC5Nmwv8xLceCmqpn7hTP20wJHd77CV7EUUnmT8F/playlist/index.m3u8/sq/89/goap/lmt%3D1/govp/lmt%3D1/dur/5.000/file/seg.ts' for reading
2025-12-19T04:15:56.8187442Z [https @ 00000297124d93c0] Opening 'https://rr6---sn-ci5gup-jwc6.googlevideo.com/videoplayback/id/WhY5UIDpM4c.1/itag/301/source/yt_live_broadcast/expire/1766139300/ei/RNFEafqwMOXd3LUPlZbEEQ/ip/2401:4900:64f2:5a81:94a4:a294:1f3e:3361/requiressl/yes/ratebypass/yes/live/1/sgoap/gir%3Dyes%3Bitag%3D140/sgovp/gir%3Dyes%3Bitag%3D299/rqh/1/hls_chunk_host/rr6---sn-ci5gup-jwc6.googlevideo.com/xpc/EgVo2aDSNQ%3D%3D/playlist_duration/30/manifest_duration/30/bui/AYUSA3CsiRvw6_PVGyiWPem9o5ts02cxajQ-YsFdSP4S4ja9v2G3ZV603lfSjnSKCgjfqpq6_M-nlrhT/spc/wH4QqxI_4K8eD1dg2bmf/vprv/1/playlist_type/DVR/cps/504/initcwndbps/577500/met/1766117702,/mh/rV/mm/44/mn/sn-ci5gup-jwc6/ms/lva/mv/m/mvi/6/pl/44/rms/lva,lva/keepalive/yes/fexp/51552689,51565116,51565681,51580968/mt/1766117066/sparams/expire,ei,ip,id,itag,source,requiressl,ratebypass,live,sgoap,sgovp,rqh,xpc,playlist_duration,manifest_duration,bui,spc,vprv,playlist_type/sig/AJfQdSswRAIgYVnUF_wQC3JqYCPpRSTFHg_LKrHlYcpizKqQwEknpCsCIC-0OBczmzEq9VWd5-7JBdkJb88_G1lFsCNlAZiQv9Sy/lsparams/hls_chunk_host,cps,initcwndbps,met,mh,mm,mn,ms,mv,mvi,pl,rms/lsig/APaTxxMwRAIgfbVR0JcjmWJMgXeU5OF2wZCJvPLKZZbn9ou4fdDsUpQCIBZjfC5Nmwv8xLceCmqpn7hTP20wJHd77CV7EUUnmT8F/playlist/index.m3u8/sq/90/goap/lmt%3D1/govp/lmt%3D1/dur/5.000/file/seg.ts' for reading
2025-12-19T04:15:57.1781590Z frame=   11 fps=0.2 q=5.0 size=N/A time=00:00:55.00 bitrate=N/A speed=1.08x elapsed=0:00:51.08    
2025-12-19T04:15:57.1783370Z [out#0/image2 @ 00000297125fd200] video:184KiB audio:0KiB subtitle:0KiB other streams:0KiB global headers:0KiB muxing overhead: unknown
2025-12-19T04:15:57.1784192Z frame=   12 fps=0.2 q=5.0 Lsize=N/A time=00:01:00.00 bitrate=N/A speed=1.17x elapsed=0:00:51.16    
